<svg width="526" height="240" viewBox="0 0 526 240" fill="none" xmlns="http://www.w3.org/2000/svg">
<path fill-rule="evenodd" clip-rule="evenodd" d="M309.459 105.361C305.721 105.893 302.784 106.425 299.58 106.692C297.711 106.958 297.444 108.289 297.177 109.619C294.774 122.395 292.637 134.905 290.234 147.681C287.297 163.651 284.36 179.355 277.418 194.26C270.209 210.497 258.194 223.805 242.975 233.121C236.299 237.113 228.556 239.509 220.546 239.775C218.143 240.041 216.007 239.509 213.871 238.71C211.468 237.646 210.133 235.25 210.4 232.588C210.667 230.193 212.536 228.064 215.206 227.797C217.075 227.531 218.677 227.265 220.546 227.265C229.357 227.265 237.367 223.273 242.708 216.352C247.781 209.698 251.786 201.979 254.189 193.994C260.063 176.161 263.267 157.529 266.738 138.898C268.607 128.783 270.476 118.669 272.345 108.821C272.612 106.692 272.345 105.893 270.209 105.627C264.602 104.562 259.796 101.901 255.791 97.9082C254.456 96.5773 253.388 94.7142 252.854 92.5848C252.32 90.7217 252.854 88.5923 254.456 87.5277C256.058 86.463 258.194 86.7292 259.529 87.7939C262.911 90.1006 266.649 91.9638 270.743 93.3833C274.748 94.7142 274.748 94.7142 275.816 90.4555C279.554 75.0179 285.161 60.911 296.643 49.4659C310.794 34.5606 331.887 28.1726 351.913 32.9636C356.986 34.0282 361.792 36.6899 365.53 40.4162C369.268 43.8764 369.535 49.7321 366.064 53.7246L365.797 53.9907C362.059 57.1847 356.719 56.3862 352.981 52.1276C346.305 44.6749 339.363 43.0779 330.018 46.2719C322.542 49.1997 316.401 54.523 312.396 61.4434C305.721 71.8239 303.318 83.5352 300.381 95.2465C299.847 97.3758 301.449 96.8435 302.517 96.8435C310.794 96.5773 319.071 95.7788 327.081 94.448C334.023 93.3833 340.698 93.6495 346.839 97.9082C347.907 98.7067 348.442 98.1743 349.51 97.3758C360.991 87.5277 378.079 88.5923 387.958 100.038C389.293 101.634 390.628 103.498 391.696 105.361C397.57 116.007 398.638 128.517 394.633 139.962C388.759 158.062 375.142 172.701 357.253 179.887C354.85 181.218 351.913 181.484 349.243 180.686C326.28 173.766 310.794 159.393 304.92 135.704C302.25 125.856 303.852 115.475 308.925 106.692C308.925 106.425 309.192 105.893 309.459 105.361ZM327.348 129.316C327.348 132.687 327.882 136.147 328.95 139.696C332.421 149.544 339.363 158.328 347.908 164.184C351.379 166.579 352.981 166.579 356.185 163.651C363.928 156.997 369.535 148.214 372.205 138.365C374.074 132.244 373.807 125.589 371.404 119.734C369.001 113.08 361.525 109.619 354.85 112.015C353.248 112.547 351.913 113.346 350.845 114.41C349.777 115.741 347.908 115.741 346.305 114.943C339.897 111.749 332.154 114.41 328.95 120.798C328.683 121.331 328.416 122.129 328.149 122.662C327.615 124.791 327.348 126.92 327.348 129.316Z" fill="#DDDDDD"/>
<path d="M39.7838 99.5052C40.0509 117.072 43.5219 133.042 54.2021 146.617C69.9554 166.313 96.9229 172.701 120.152 162.587C122.021 161.522 124.157 160.99 126.293 160.723C128.697 160.457 130.566 162.054 130.833 164.45C130.833 164.982 130.833 165.781 130.566 166.313C129.765 168.708 128.163 170.572 126.026 171.902C118.283 176.96 109.472 180.154 100.394 180.952C51.5321 187.34 8.01025 154.335 1.60212 105.627C-4.53899 59.0479 24.0306 12.4687 77.4316 3.41908C98.792 -0.839582 120.686 3.15291 139.377 14.0657C145.251 17.5259 150.591 22.0507 154.596 27.6402C155.931 29.5034 156.999 31.6327 156.999 34.0282C157.266 36.6899 155.931 39.3515 153.528 40.4162C151.125 41.747 147.921 41.4809 145.785 39.6177C144.984 38.8192 144.183 38.0207 143.382 36.9561C133.503 22.3169 119.351 16.7274 101.996 17.5259C79.5676 18.5906 63.8143 30.0357 53.1341 48.9335C44.5899 64.3712 40.0509 81.9382 39.7838 99.5052Z" fill="#DDDDDD"/>
<path d="M216.274 104.03C217.609 103.764 218.143 102.433 218.677 101.901C226.153 92.851 239.504 91.254 248.582 98.7067C251.519 101.102 253.922 104.296 255.257 107.756C257.126 112.281 258.194 117.072 258.194 122.129C258.461 136.236 255.524 150.077 249.917 163.119C248.048 167.378 245.378 171.37 241.907 174.564C237.902 178.557 232.027 180.42 226.42 179.355C223.75 179.355 221.614 176.96 221.614 174.298C221.614 173.766 221.614 173.499 221.881 172.967C222.148 171.37 222.682 169.773 223.483 168.442C229.357 155.666 233.095 142.092 234.698 127.985C234.965 125.323 234.698 122.395 233.896 119.734C233.095 116.274 229.624 114.144 226.153 114.943C225.085 115.209 224.017 115.741 223.216 116.54C220.546 118.935 218.677 121.863 217.876 125.323C216.274 131.711 214.672 138.099 213.07 144.487C212.002 148.746 210.667 153.005 209.065 156.997C206.929 162.32 203.191 166.579 198.385 169.773C194.914 172.169 190.375 172.967 186.37 172.169C181.563 171.37 179.961 168.442 181.296 163.917C182.098 161.256 183.166 158.86 184.234 156.465C188.773 146.084 191.977 135.438 193.846 124.259C194.647 120.266 194.647 116.274 193.579 112.281C191.71 106.425 186.103 105.095 181.83 109.619C179.872 112.104 178.537 114.765 177.825 117.604C175.689 125.589 173.553 133.574 171.15 141.559C169.815 146.617 167.412 151.674 164.208 155.666C159.936 161.522 152.994 164.982 145.785 164.716C139.377 164.45 137.241 160.99 140.445 155.4C146.853 143.955 151.659 131.445 154.596 118.403C157.533 106.425 157.8 94.1818 155.397 81.9382C154.329 76.6149 156.732 74.4855 162.072 75.8163C169.014 77.6795 174.354 83.0028 175.956 89.9232C177.024 93.1172 177.024 93.1172 179.427 91.254C183.967 87.5277 189.574 85.6645 195.181 85.6645C204.793 85.3983 213.337 92.0525 215.206 101.368C215.74 102.433 216.007 103.231 216.274 104.03Z" fill="#DDDDDD"/>
<path fill-rule="evenodd" clip-rule="evenodd" d="M147.387 102.965C147.12 122.662 135.639 141.027 118.283 147.415C102.797 153.271 87.8446 151.674 75.0284 140.761C62.2122 129.848 58.7411 115.741 62.2121 100.038C66.2172 80.8736 76.8974 67.0329 96.9228 62.5081C124.424 56.3863 147.921 75.5502 147.387 102.965ZM123.089 94.4481C123.089 90.9879 122.822 87.5277 121.487 84.0676C119.618 77.6796 112.943 73.9532 106.268 75.8164C105.2 76.0826 104.132 76.6149 103.331 77.1472C99.5929 79.2766 96.3888 82.4706 94.2528 86.1969C88.6456 95.5127 85.4416 106.426 85.1746 117.338C84.9076 121.065 85.7086 124.525 87.0436 127.985C89.1797 134.373 96.1218 137.833 102.797 135.704C103.865 135.438 104.666 134.905 105.467 134.373C109.472 131.978 112.676 128.517 115.079 124.525C120.152 115.209 123.089 105.095 123.089 94.4481Z" fill="#DDDDDD"/>
<path d="M490.221 145.552C481.143 145.286 472.599 139.962 468.861 131.711C465.123 123.992 462.987 116.007 462.186 107.49C460.317 94.1818 458.715 80.8735 457.113 67.5652C456.846 64.9035 456.045 64.105 453.375 64.9035C449.102 66.2344 444.563 66.5005 440.024 65.702C438.422 65.4359 437.087 64.9035 435.752 64.105C433.883 63.3065 432.815 61.1772 433.082 59.0479C433.349 56.6524 435.485 56.1201 437.354 55.8539C442.16 54.9667 446.966 53.902 451.772 52.6599C453.909 52.1276 454.443 51.3291 453.909 49.1997C452.306 43.0779 449.903 37.4884 446.966 31.8989C445.898 30.3019 445.097 28.7049 444.563 27.1079C443.228 24.4462 444.296 21.2523 446.966 19.9214C447.767 19.3891 448.835 19.3891 449.903 19.3891C454.176 19.3891 458.181 20.7199 461.652 22.8492C467.526 26.5756 472.065 32.1651 474.468 38.8192C475.536 41.2147 476.337 41.2147 478.206 39.8839C485.415 34.8267 492.09 29.2372 497.964 22.8492C499.032 21.7846 500.1 20.7199 501.168 19.6553C501.969 18.5906 503.571 18.0583 504.906 18.3244C506.509 18.8568 507.31 20.1876 507.31 21.7846C507.577 26.3094 506.509 31.1004 503.838 34.8267C498.765 42.8117 491.289 49.4659 482.745 53.7246C480.342 54.5231 479.274 57.1847 480.075 59.3141C482.745 73.687 483.813 88.3262 485.682 102.699C486.216 106.958 487.284 111.483 488.619 115.475C491.022 121.597 495.828 125.323 501.435 125.323C507.577 125.323 512.917 121.331 515.053 115.475C515.854 113.612 516.388 111.749 516.922 109.619C517.723 106.958 519.325 105.361 522.262 105.893C525.199 106.426 526 108.555 526 110.95C526 113.612 525.733 116.274 524.932 118.935C520.393 134.639 506.242 145.286 490.221 145.552Z" fill="#DDDDDD"/>
<path d="M415.46 90.7217C416.261 87.7939 417.329 85.1322 418.931 82.4705C423.47 74.4856 432.548 70.7592 441.36 72.8886C447.234 74.2194 451.773 79.0104 452.307 85.1322C453.375 91.7864 452.307 97.9082 446.7 102.167C442.428 105.361 439.224 104.03 438.69 98.7067C438.69 98.1744 438.69 97.9082 438.423 97.642C437.889 93.9157 436.019 91.7864 433.349 91.5202C430.679 91.254 428.276 93.1172 426.941 96.5774C425.606 100.304 425.339 104.562 426.14 108.289C428.009 117.605 430.145 126.92 432.014 136.236C433.349 142.092 433.616 147.947 432.281 153.803C430.946 160.457 426.674 166.047 420.533 168.975C414.125 172.169 410.12 169.773 410.387 162.853C411.188 147.149 409.052 131.179 404.246 116.274C401.843 109.087 398.639 102.167 394.367 95.7789C393.566 94.7142 392.765 93.3834 392.231 92.0525C390.095 87.2615 391.964 83.5352 397.571 82.7367C402.911 82.2044 408.251 84.3337 412.256 88.06C413.591 88.8585 414.392 89.657 415.46 90.7217Z" fill="#DDDDDD"/>
</svg>
