<svg version="1.2" xmlns="http://www.w3.org/2000/svg" viewBox="0 0 800 170" width="800" height="170">
	<title>Viettel-svg</title>
	<style>
		.s0 { fill: #ef0032 } 
	</style>
	<g id="g884">
		<g id="g910">
			<path id="path912" class="s0" d="m185.6 41.5h-13.3c-5.3 0-9.6 4.3-9.6 9.6v98.3c0 5.3 4.3 9.6 9.6 9.6h13.3c5.3 0 9.6-4.3 9.6-9.6v-98.3c-0.1-5.4-4.3-9.6-9.6-9.6z"/>
		</g>
		<g id="g914">
			<path id="path916" class="s0" d="m137.9 41.5c-8.4 0-15.4 5-18.8 12.2l-35.2 74.9c-0.8 1.8-2.5 4.6-3.9 4.6-1.4 0-3.1-2.9-3.9-4.6l-35.5-74.9c-3.4-7.2-10.4-12.2-18.8-12.2h-20.5l55.9 108.2c5.5 10.7 16.9 10.4 22.7 10.4 8 0 17.4-0.4 22.4-10.4l55.9-108.3h-20.3z"/>
		</g>
		<g id="g918">
			<path id="path920" class="s0" d="m755.9 23.5c0-5.3-4.3-9.6-9.6-9.6h-13.3c-5.3 0-9.6 4.3-9.6 9.6v97.1c0 14.8 5.3 23.5 14.7 29.7 9.1 6 19.7 8.6 39.3 8.6h10.7c5.3 0 9.5-4.3 9.5-9.6v-10.4h-8c-5.8 0-18-0.2-25.2-5.1-9.4-6.2-8.6-17.3-8.6-25.3v-85z"/>
		</g>
		<g id="g922">
			<path id="path924" class="s0" d="m548.5 138.9c-5.8 0-18-0.2-25.2-5.1-9.4-6.2-8.6-17.3-8.6-25.3v-47.2h31.4c5.3 0 9.6-4.3 9.6-9.6v-10.2h-41v-18c0-5.3-4.3-9.6-9.6-9.6h-13.3c-5.3 0-9.6 4.3-9.6 9.6v18h-67.6v-18c0-5.3-4.3-9.6-9.6-9.6h-13.3c-5.3 0-9.6 4.3-9.6 9.6v18h-20.2v10.4c0 5.3 4.3 9.6 9.6 9.6h10.6v59.1c0 14.8 5.3 23.5 14.7 29.7 9.1 6 19.7 8.6 39.3 8.6h10.7c5.3 0 9.5-4.3 9.5-9.6v-10.4h-8c-5.8 0-18-0.2-25.2-5.1-9.4-6.2-8.6-17.3-8.6-25.3v-47.2h67.6v59.1c0 14.8 5.3 23.5 14.7 29.7 9.1 6 19.6 8.6 39.3 8.6h10.6c5.3 0 9.6-4.3 9.6-9.6v-10.4h-7.8z"/>
		</g>
		<g id="g926">
			<path id="path928" fill-rule="evenodd" class="s0" d="m340.7 159h-71.9c-14.9 0-32.6-1.2-44.8-14.9-9.7-11-10.5-27.2-10.5-42.7 0-21.9 1.4-38.1 17.5-49.2 16-11.1 41-11.1 54.8-11.1 17.1 0 34.9 0.6 48.4 7.5 17.2 8.7 20.8 23.3 20.8 38.1 0 6-0.8 12.9-6.9 17.7-4.4 3.5-10 4.4-15.8 4.4h-85.3c0 5.1 0.8 12.6 1.9 16.2 4.1 12.6 17.7 13.9 29.6 13.9h71.7v10.4c0 5.2-4.3 9.5-9.5 9.7zm-28.7-92.9c-8.1-4.9-18.6-5.3-27.7-5.3-8.6 0-21.9-0.2-30.7 7.8-6.7 6-6.4 12.4-6.7 20.2v12c0-6.7 9.5-12 21.2-12h46.1c6.4 0 7.2-3.8 7.2-6.9 0-7.3-4.7-12.8-9.4-15.8z"/>
		</g>
		<g id="g930">
			<path id="path932" fill-rule="evenodd" class="s0" d="m691.1 159h-71.9c-15 0-32.7-1.2-44.9-14.9-9.7-11-10.5-27.2-10.5-42.7 0-21.9 1.4-38.1 17.4-49.2 16-11.1 41-11.1 54.8-11.1 17.2 0 34.9 0.6 48.5 7.5 17.2 8.7 20.8 23.3 20.8 38.1 0 6-0.8 12.9-6.9 17.7-4.4 3.5-10 4.4-15.8 4.4h-85.3c0 5.1 0.8 12.6 1.9 16.2 4.1 12.6 17.7 13.9 29.6 13.9h71.7v10.4c0 5.2-4.3 9.5-9.4 9.7zm-28.9-92.9c-8-4.9-18.5-5.3-27.7-5.3-8.5 0-21.9-0.2-30.7 7.8-6.6 6-6.3 12.4-6.6 20.2v12c0-6.7 9.5-12 21.2-12h46.1c6.4 0 7.2-3.8 7.2-6.9 0-7.3-4.7-12.8-9.5-15.8z"/>
		</g>
		<g id="g934">
			<path id="path936" class="s0" d="m185.6 8.6h-13.3c-5.3 0-9.6 4.3-9.6 9.5v2.6 20.7h0.1c0.9-5.4 7.1-11.1 16.1-11.1h6.6c5.3 0 9.6-4.3 9.6-9.6v-2.6c0-5.2-4.2-9.5-9.5-9.5z"/>
		</g>
	</g>
</svg>