<svg width="200" height="200" viewBox="0 0 200 200" fill="none" xmlns="http://www.w3.org/2000/svg">
<path d="M100.042 200C45.0208 199.99 0 154.984 0 100.016C0 45.0469 45.0521 0 100.13 0C155.005 0 199.99 45.125 199.896 100.115C199.807 155.104 154.901 200 100.042 200ZM5.26042 99.9948C5.17188 151.781 47.9271 194.469 99.9427 194.578C151.75 194.688 194.526 152.089 194.604 100.313C194.698 48.099 152.365 5.36458 100.203 5.30208C48.0365 5.24479 5.42188 47.7188 5.26042 99.9948Z" fill="#D2D2D2"/>
<path d="M67.9478 135.365C70.9217 132.411 74.7446 130.469 78.8853 129.812C81.3384 129.312 83.8384 129.031 86.3436 128.974C108.911 128.885 131.479 128.885 154.047 128.854L182.672 128.771H184.26L182.422 133.896H84.6873C78.1457 133.896 72.703 136.151 68.7082 141.464C68.2915 142.073 68.0571 142.786 68.0415 143.521C67.9478 145.906 68.0415 148.297 68.0415 150.75C68.2707 150.682 68.4061 150.682 68.479 150.62C72.0415 147.115 76.5259 145.63 81.3123 145.057C85.0363 144.687 88.7811 144.526 92.5259 144.573C120.323 144.51 148.125 144.479 175.922 144.479H177.411C176.292 146.219 175.323 147.797 174.245 149.302C174.073 149.552 173.448 149.542 173.026 149.542H85.3436C82.7082 149.474 80.078 149.844 77.5675 150.63C73.9425 151.828 70.7967 154.146 68.578 157.25C68.229 157.766 68.0311 158.37 68.0103 158.99C67.9478 161.187 68.0103 163.385 68.0103 165.682C68.1821 165.651 68.3436 165.594 68.4998 165.51C71.854 162.245 76.0363 160.797 80.479 160.099C82.5936 159.766 84.729 159.589 86.8696 159.568C112.875 159.469 138.875 159.401 164.87 159.37H166.495C164.797 161.156 163.302 162.786 161.734 164.359C161.484 164.599 160.906 164.552 160.484 164.552H105.495C98.104 164.552 90.7186 164.432 83.328 164.552C77.1092 164.474 71.3175 167.687 68.0884 173C67.0103 174.745 66.5519 176.844 65.8019 178.74C65.6248 179.208 65.453 179.672 65.2134 180.339C64.7655 178.823 64.4321 177.51 64.005 176.245C61.2603 168.255 54.7186 163.88 46.2707 164.401C43.9634 164.542 41.6353 164.521 39.2811 164.552C38.9217 164.562 38.5728 164.453 38.2811 164.24C36.6457 162.786 35.0363 161.297 33.4269 159.818L33.7498 159.401H41.4478C44.7603 159.479 48.0884 159.479 51.3748 159.786C55.9686 160.089 60.1353 162.583 62.5571 166.5L62.8748 166.99C62.9738 166.661 63.0467 166.328 63.0884 165.99C63.0884 164.51 62.9946 162.995 63.0884 161.568C63.1769 159.885 62.7082 158.219 61.7498 156.833C59.0728 152.203 54.1144 149.359 48.7655 149.396C41.7759 149.292 34.7082 149.474 27.6873 149.625C26.6196 149.766 25.5832 149.182 25.1509 148.193C24.5832 147.104 23.8748 146.109 23.1561 144.937H33.38C38.1717 144.937 42.9634 144.937 47.7498 145.12C52.255 145.146 56.6353 146.641 60.2186 149.375C61.2186 150.161 62.1196 151.052 63.0571 151.891C63.0936 151.557 63.1144 151.224 63.1144 150.891C63.1144 149.135 63.0363 147.365 63.1144 145.62C63.1873 144.052 62.7655 142.505 61.9061 141.193C59.1509 136.521 55.0675 133.734 49.6769 133.526C42.8957 133.266 36.104 133.469 29.3228 133.526C25.8123 133.526 22.3332 133.526 18.7811 133.625C18.0988 133.74 17.4425 133.302 17.2811 132.63C16.8123 131.318 16.2342 130.052 15.604 128.531H17.1144C27.0988 128.531 37.005 128.354 46.9478 128.604C52.9894 128.755 58.6144 130.469 62.5571 135.594C62.7186 135.719 62.8853 135.833 63.0675 135.932V134.156C63.0675 96.7812 63.0884 59.401 63.1353 22.0104C63.1353 20.6979 63.4165 19.8698 64.6821 19.3437C65.7915 18.8333 66.8644 18.2552 67.9009 17.6146L67.9478 135.365Z" fill="#D2D2D2"/>
<path d="M79.7603 112.375L78.1821 112.229V109.63L79.6925 109.432V102.38C83.2082 102.542 86.5832 102.38 89.8384 102.932C93.0936 103.479 94.5623 105.984 94.9321 109.021C95.1561 110.802 95.0675 112.604 94.6717 114.354C93.9634 117.411 91.9738 119.495 88.6769 119.745C85.755 119.974 82.7967 119.745 79.6925 119.745L79.7603 112.375ZM83.5363 116.828C86.0519 116.63 88.729 117.557 90.5259 114.974C91.8123 113.104 91.7342 108.984 90.3175 107.234C88.4998 105.005 85.9738 105.609 83.578 105.615V109.531H87.3228V112.276H83.5363V116.828Z" fill="#D2D2D2"/>
<path d="M129.042 117.76L131.135 119.755L129.5 121.552C128.979 121.083 128.5 120.703 128.073 120.245C127.547 119.589 126.635 119.391 125.885 119.776C121.021 121.474 115.542 119.427 114.464 113.557C114.156 111.672 114.25 109.745 114.74 107.901C115.818 103.828 119.536 101.615 123.88 102.109C127.88 102.562 130.979 105.828 131.229 109.849C131.635 112.677 130.839 115.542 129.042 117.76ZM126.365 115.281C128.062 113.286 127.964 108.865 126.234 106.734C124.526 104.807 121.583 104.63 119.656 106.333C119.547 106.427 119.448 106.521 119.354 106.625C117.417 108.854 117.359 113.615 119.354 115.781C120.573 117.161 122.542 117.589 124.229 116.849L122.828 115.365L124.448 113.635L126.365 115.281Z" fill="#D2D2D2"/>
<path d="M183.812 119.948C182.729 120.005 181.64 120.005 180.557 119.948C180.187 119.948 179.797 119.438 179.557 119.078C177.562 115.932 175.635 112.776 173.677 109.62C173.427 109.193 173.088 108.823 172.677 108.542V119.828H169.26V102.542H172.635C172.917 102.542 173.219 103.031 173.417 103.349C175.411 106.557 177.411 109.781 179.406 112.995C179.64 113.401 179.989 113.724 180.406 113.927V102.599H183.792L183.812 119.948Z" fill="#D2D2D2"/>
<path d="M148.365 108.161C147.464 108.161 146.557 108.214 145.646 108.161C145.323 108.109 145.047 107.896 144.906 107.594C143.979 104.5 139.318 104.599 137.641 106.964C136.089 109.589 136.089 112.844 137.641 115.464C138.735 116.958 140.636 117.635 142.432 117.161C143.87 117.005 145.047 115.948 145.36 114.536C145.448 114.135 145.505 113.734 145.537 113.328H141.693V110.688H148.844V119.927H146.625L146.198 118.417C145.005 119.167 143.729 119.766 142.391 120.198C138.021 121.036 133.797 118.182 132.943 113.813C132.865 113.375 132.818 112.927 132.807 112.479C132.698 110.891 132.865 109.302 133.297 107.776C134.11 105.266 136.068 103.297 138.568 102.469C141.073 101.641 143.818 102.052 145.969 103.578C147.511 104.583 148.422 106.323 148.365 108.161Z" fill="#D2D2D2"/>
<path d="M108.25 102.583H111.964V119.875H108.37V112.437H101.094V119.875H97.3647V102.63H101.011V109.151H108.25V102.583Z" fill="#D2D2D2"/>
<path d="M151.667 102.599H155.245V109.193H162.453V102.62H166.156V119.885H162.521V112.417H155.333V119.828H151.667V102.599Z" fill="#D2D2D2"/>
</svg>
