<svg width="24" height="22" viewBox="0 0 24 22" fill="none" xmlns="http://www.w3.org/2000/svg">
<path d="M4.71424 6.28578C5.58193 6.28578 6.32252 5.97898 6.93622 5.36511C7.55013 4.75128 7.85711 4.01048 7.85711 3.14296C7.85711 2.27552 7.55013 1.53471 6.93622 0.920802C6.32252 0.306977 5.58189 0 4.71424 0C3.84663 0 3.10599 0.306977 2.49217 0.920802C1.87839 1.53471 1.57141 2.27534 1.57141 3.14296C1.57141 4.01065 1.87839 4.75128 2.49217 5.36511C3.10599 5.97881 3.84663 6.28578 4.71424 6.28578Z" fill="white"/>
<path d="M8.45245 11.1905C9.37321 12.111 10.4841 12.5714 11.7856 12.5714C13.0872 12.5714 14.1981 12.111 15.1188 11.1905C16.0394 10.2695 16.4998 9.15844 16.4998 7.85717C16.4998 6.55582 16.0394 5.44483 15.1188 4.52403C14.1981 3.60322 13.0872 3.14282 11.7856 3.14282C10.4841 3.14282 9.37312 3.60331 8.45245 4.52403C7.53178 5.4447 7.07129 6.55569 7.07129 7.85717C7.07129 9.15865 7.53178 10.2696 8.45245 11.1905Z" fill="white"/>
<path d="M18.8574 6.28578C19.7247 6.28578 20.4655 5.97898 21.0792 5.36511C21.693 4.75128 21.9998 4.01048 21.9998 3.14296C21.9998 2.27552 21.693 1.53471 21.0792 0.920802C20.4655 0.306977 19.7247 0 18.8574 0C17.9895 0 17.2489 0.306977 16.6351 0.920802C16.0214 1.53471 15.7145 2.27534 15.7145 3.14296C15.7145 4.01065 16.0215 4.75128 16.6351 5.36511C17.2489 5.97881 17.9895 6.28578 18.8574 6.28578Z" fill="white"/>
<path d="M22.0488 6.28589C22 6.28589 21.822 6.37185 21.515 6.54372C21.2083 6.71567 20.8091 6.88961 20.3182 7.06561C19.8273 7.24143 19.3401 7.32946 18.8574 7.32946C18.3088 7.32946 17.7649 7.23542 17.2245 7.04708C17.2652 7.34975 17.2858 7.61992 17.2858 7.85728C17.2858 8.99493 16.9542 10.0425 16.291 11.0001C17.6172 11.0412 18.7014 11.5649 19.5447 12.5718H21.1897C21.8608 12.5718 22.4255 12.4057 22.8838 12.0743C23.342 11.7431 23.5713 11.2579 23.5713 10.6196C23.5714 7.7303 23.0642 6.28572 22.0488 6.28589Z" fill="white"/>
<path d="M20.2141 16.2117C20.1281 15.7328 20.0195 15.2887 19.8886 14.8796C19.7576 14.4702 19.5816 14.0715 19.3609 13.6827C19.1399 13.2942 18.886 12.9625 18.5996 12.6882C18.3129 12.4139 17.9629 12.1952 17.5498 12.0313C17.1366 11.8677 16.6801 11.7859 16.1809 11.7859C16.099 11.7859 15.9231 11.8739 15.653 12.0499C15.3828 12.2257 15.0844 12.4225 14.7568 12.6391C14.4294 12.8557 13.9919 13.0523 13.4432 13.2283C12.8944 13.4043 12.342 13.4923 11.7858 13.4923C11.2293 13.4923 10.6768 13.4043 10.1284 13.2283C9.57988 13.0523 9.14214 12.8557 8.81474 12.6391C8.48725 12.4225 8.18861 12.2257 7.91857 12.0499C7.64841 11.8739 7.47253 11.7859 7.39058 11.7859C6.89139 11.7859 6.43512 11.8677 6.02176 12.0313C5.6084 12.1952 5.25855 12.4139 4.97213 12.6882C4.68545 12.9622 4.43196 13.2942 4.21081 13.6827C3.98992 14.0715 3.81397 14.4702 3.68299 14.8796C3.55205 15.2887 3.44374 15.7328 3.35765 16.2117C3.27165 16.6905 3.21442 17.1364 3.18578 17.5499C3.1571 17.9632 3.14282 18.3869 3.14282 18.8207C3.14282 19.8026 3.44146 20.5783 4.0389 21.1469C4.63656 21.7155 5.43051 22.0001 6.42063 22.0001H17.1506C18.1408 22.0001 18.9347 21.7155 19.5325 21.1469C20.1299 20.5783 20.4286 19.8026 20.4286 18.8207C20.4286 18.3869 20.4142 17.9634 20.386 17.5499C20.3569 17.1364 20.2997 16.6905 20.2141 16.2117Z" fill="white"/>
<path d="M7.28003 11.0001C6.61705 10.0425 6.28565 8.99493 6.28578 7.85728C6.28578 7.61992 6.30629 7.34992 6.34714 7.04707C5.80689 7.23529 5.26264 7.32946 4.71426 7.32946C4.23137 7.32946 3.74453 7.24148 3.25338 7.06561C2.76245 6.88961 2.36332 6.71567 2.05652 6.54372C1.74958 6.37185 1.57143 6.28589 1.52237 6.28589C0.507443 6.28593 0 7.73052 0 10.6196C0 11.2579 0.22919 11.7431 0.687441 12.0743C1.14582 12.4057 1.71058 12.5715 2.38151 12.5715H4.02669C4.86979 11.5649 5.95408 11.0411 7.28003 11.0001Z" fill="white"/>
</svg>
