<svg width="22" height="22" viewBox="0 0 22 22" fill="none" xmlns="http://www.w3.org/2000/svg">
<path d="M10.985 21.0974C16.5699 21.0974 21.0974 16.5699 21.0974 10.985C21.0974 5.40013 16.5699 0.872673 10.985 0.872673C5.40013 0.872673 0.872673 5.40013 0.872673 10.985C0.872673 16.5699 5.40013 21.0974 10.985 21.0974Z" fill="#F9B22A"/>
<path fill-rule="evenodd" clip-rule="evenodd" d="M3.92789 18.2249C2.04335 16.3875 0.872673 13.822 0.872673 10.985C0.872673 5.40389 5.40389 0.872673 10.985 0.872673C13.6947 0.872673 16.1568 1.94074 17.9736 3.67892C18.0553 4.26288 18.0975 4.85984 18.0975 5.46658C18.0975 12.5465 12.3495 18.2944 5.26959 18.2944C4.81649 18.2944 4.36885 18.2709 3.92789 18.2249Z" fill="#FFD541"/>
<path d="M10.985 19.2247C15.5357 19.2247 19.2247 15.5357 19.2247 10.985C19.2247 6.43438 15.5357 2.74535 10.985 2.74535C6.43438 2.74535 2.74535 6.43438 2.74535 10.985C2.74535 15.5357 6.43438 19.2247 10.985 19.2247Z" fill="#FED29D"/>
<path fill-rule="evenodd" clip-rule="evenodd" d="M6.97272 18.1821C4.4515 16.7726 2.74535 14.0765 2.74535 10.985C2.74535 6.43737 6.43737 2.74535 10.985 2.74535C13.9732 2.74535 16.5921 4.33946 18.0366 6.72281C17.4589 12.6516 12.839 17.403 6.97272 18.1821Z" fill="#FBF0CF"/>
<path fill-rule="evenodd" clip-rule="evenodd" d="M15.3445 7.59908C15.2153 7.352 14.9596 7.19721 14.6808 7.19721C13.2337 7.19721 8.73638 7.19721 7.28923 7.19721C7.0104 7.19721 6.7547 7.352 6.62546 7.59908C6.20822 8.39667 5.3153 10.1036 5.3153 10.1036H16.6548C16.6548 10.1036 15.7618 8.39667 15.3445 7.59908Z" fill="#FFDE6A"/>
<path fill-rule="evenodd" clip-rule="evenodd" d="M12.3483 7.59908C12.2191 7.35207 11.9634 7.19721 11.6846 7.19721C11.2798 7.19721 10.6902 7.19721 10.2855 7.19721C10.0067 7.19721 9.75099 7.35207 9.62175 7.59908C9.20445 8.39667 8.31153 10.1036 8.31153 10.1036H13.6585C13.6585 10.1036 12.7655 8.39667 12.3483 7.59908Z" fill="#FFD541"/>
<path fill-rule="evenodd" clip-rule="evenodd" d="M16.6548 10.1036H5.3153C5.3153 10.1036 8.98225 14.3491 10.4181 16.0116C10.5604 16.1762 10.7673 16.271 10.985 16.271C11.2027 16.271 11.4096 16.1762 11.5519 16.0116C12.9878 14.3491 16.6548 10.1036 16.6548 10.1036Z" fill="#FABD4A"/>
<path fill-rule="evenodd" clip-rule="evenodd" d="M13.6585 10.1036H8.31153C8.31153 10.1036 9.91474 14.0399 10.6382 15.8162C10.6956 15.9572 10.8327 16.0494 10.985 16.0494C11.1373 16.0494 11.2744 15.9572 11.3319 15.8162C12.0553 14.0399 13.6585 10.1036 13.6585 10.1036Z" fill="#F9B22A"/>
</svg>
