<svg width="20" height="20" viewBox="0 0 20 20" fill="none" xmlns="http://www.w3.org/2000/svg">
<path d="M19.56 8.74L18.2 7.16C17.94 6.86 17.73 6.3 17.73 5.9V4.2C17.73 3.14 16.86 2.27 15.8 2.27H14.1C13.71 2.27 13.14 2.06 12.84 1.8L11.26 0.440001C10.57 -0.149999 9.44 -0.149999 8.74 0.440001L7.17 1.81C6.87 2.06 6.3 2.27 5.91 2.27H4.18C3.12 2.27 2.25 3.14 2.25 4.2V5.91C2.25 6.3 2.04 6.86 1.79 7.16L0.439999 8.75C-0.140001 9.44 -0.140001 10.56 0.439999 11.25L1.79 12.84C2.04 13.14 2.25 13.7 2.25 14.09V15.8C2.25 16.86 3.12 17.73 4.18 17.73H5.91C6.3 17.73 6.87 17.94 7.17 18.2L8.75 19.56C9.44 20.15 10.57 20.15 11.27 19.56L12.85 18.2C13.15 17.94 13.71 17.73 14.11 17.73H15.81C16.87 17.73 17.74 16.86 17.74 15.8V14.1C17.74 13.71 17.95 13.14 18.21 12.84L19.57 11.26C20.15 10.57 20.15 9.43 19.56 8.74ZM14.16 8.11L9.33 12.94C9.19 13.08 9 13.16 8.8 13.16C8.6 13.16 8.41 13.08 8.27 12.94L5.85 10.52C5.56 10.23 5.56 9.75 5.85 9.46C6.14 9.17 6.62 9.17 6.91 9.46L8.8 11.35L13.1 7.05C13.39 6.76 13.87 6.76 14.16 7.05C14.45 7.34 14.45 7.82 14.16 8.11Z" fill="url(#paint0_linear_531_27)"/>
<defs>
<linearGradient id="paint0_linear_531_27" x1="10.004" y1="-0.00199863" x2="10.004" y2="20.003" gradientUnits="userSpaceOnUse">
<stop stop-color="#138BD7"/>
<stop offset="1" stop-color="#62AAFB"/>
</linearGradient>
</defs>
</svg>
