<svg width="80" height="80" viewBox="0 0 80 80" fill="none" xmlns="http://www.w3.org/2000/svg">
<path opacity="0.4" d="M56.7883 0H23.2516C8.68433 0 0 8.68 0 23.24V56.72C0 71.32 8.68433 80 23.2516 80H56.7483C71.3155 80 79.9999 71.32 79.9999 56.76V23.24C80.0399 8.68 71.3556 0 56.7883 0Z" fill="#009D4B"/>
<path d="M41.2684 37.16C41.5886 37.88 42.1489 38.48 42.9092 38.8C43.2694 38.92 43.6296 39 44.0298 39L60.0378 39C61.6786 39 63.0393 37.64 63.0393 36C63.0393 34.36 61.6786 33 60.0378 33L51.2734 33L66.1608 18.12C67.3214 16.96 67.3214 15.04 66.1608 13.88C65.5605 13.28 64.8001 13 64.0398 13C63.2794 13 62.519 13.28 61.9187 13.88L47.0313 28.76L47.0313 20C47.0313 18.36 45.6706 17 44.0298 17C42.389 17 41.0283 18.36 41.0283 20L41.0283 36C41.0283 36.4 41.1083 36.76 41.2684 37.16Z" fill="#009D4B"/>
<path d="M13.8768 66.1296C15.0374 67.2896 16.9583 67.2896 18.1189 66.1296L33.0063 51.2496L33.0063 60.0096C33.0063 61.6496 34.367 63.0096 36.0078 63.0096C37.6487 63.0096 39.0093 61.6496 39.0093 60.0096L39.0093 44.0096C39.0093 43.6096 38.9293 43.2496 38.7692 42.8496C38.4491 42.1296 37.8888 41.5296 37.1284 41.2096C36.8082 41.0896 36.408 41.0096 36.0078 41.0096L19.9999 41.0096C18.359 41.0096 16.9984 42.3696 16.9984 44.0096C16.9984 45.6496 18.359 47.0096 19.9999 47.0096L28.7642 47.0096L13.8768 61.8896C12.7162 63.0496 12.7162 64.9696 13.8768 66.1296Z" fill="#009D4B"/>
</svg>
