<svg width="30" height="30" viewBox="0 0 30 30" fill="none" xmlns="http://www.w3.org/2000/svg">
<path fill-rule="evenodd" clip-rule="evenodd" d="M8.715 0H21.285C26.745 0 30 3.255 29.985 8.715V21.285C29.985 26.745 26.73 30 21.27 30H8.715C3.255 30 0 26.745 0 21.27V8.715C0 3.255 3.255 0 8.715 0ZM7.34137 7.34494C7.79653 6.88502 8.53449 6.88502 8.98965 7.34494L15.1587 13.5785L21.0106 7.66543C21.4658 7.20551 22.2037 7.20551 22.6589 7.66543C23.114 8.12535 23.114 8.87103 22.6589 9.33095L16.807 15.2441L22.1759 20.6691C22.631 21.129 22.631 21.8747 22.1759 22.3346C21.7207 22.7946 20.9827 22.7946 20.5276 22.3346L15.1587 16.9096L9.47266 22.6551C9.0175 23.115 8.27954 23.115 7.82438 22.6551C7.36922 22.1952 7.36922 21.4495 7.82438 20.9896L13.5104 15.2441L7.34137 9.01046C6.88621 8.55054 6.88621 7.80486 7.34137 7.34494Z" fill="white"/>
</svg>
