<svg width="80" height="80" viewBox="0 0 80 80" fill="none" xmlns="http://www.w3.org/2000/svg">
<path opacity="0.4" d="M22.0512 80L53.9071 80C67.7139 80 75.9981 71.76 75.9981 57.92L75.9981 26.12C75.9981 12.2399 67.7139 3.99994 53.9071 3.99994L22.0912 3.99994C8.24433 3.99994 0.000221907 12.24 0.000223117 26.08L0.000225902 57.92C-0.0397928 71.76 8.24433 80 22.0512 80Z" fill="#CC5D9A"/>
<path d="M43.9821 23.4L43.9821 12.6C43.9821 3.59998 47.5839 -2.29167e-05 56.5884 -2.37035e-05L67.3938 -2.46477e-05C76.3983 -2.54345e-05 80.0001 3.59998 80.0001 12.6L80.0001 23.4C80.0001 32.4 76.3983 36 67.3938 36L56.5884 36C47.5839 36 43.9821 32.4 43.9821 23.4Z" fill="#CC5D9A"/>
<path d="M12.9688 64.1999C12.9688 64.5599 13.0488 64.8799 13.1689 65.2399C13.1689 65.2799 13.2089 65.3199 13.2089 65.3199C13.3289 65.5999 13.529 65.8799 13.7291 66.0799C13.8092 66.1599 13.8892 66.2399 13.9693 66.2799C14.1694 66.4399 14.3695 66.5999 14.5696 66.6799C14.6496 66.7199 14.7697 66.7599 14.8497 66.7999C15.1699 66.9199 15.53 66.9999 15.8902 66.9999L31.9782 66.9999C33.619 66.9999 34.9797 65.6399 34.9797 63.9999C34.9797 62.3599 33.6591 61.1199 31.9782 61.1199L23.1338 61.1199L38.1013 46.1199C39.2619 44.9599 39.2619 43.0399 38.1013 41.8799C37.501 41.2799 36.7406 40.9999 35.9802 40.9999C35.2198 40.9999 34.4595 41.2799 33.8592 41.8799L18.9317 56.8399L18.9317 48.0399C18.9317 46.3999 17.571 45.0399 15.9302 45.0399C14.2894 45.0399 12.9287 46.3999 12.9287 48.0399L12.9287 64.1199C12.9287 64.1599 12.9287 64.1599 12.9688 64.1999Z" fill="#CC5D9A"/>
</svg>
