<svg width="80" height="80" viewBox="0 0 80 80" fill="none" xmlns="http://www.w3.org/2000/svg">
<path opacity="0.4" d="M56.7595 0H23.2398C8.67992 0 0 8.67992 0 23.2398V56.7195C0 71.3193 8.67992 79.9992 23.2398 79.9992H56.7195C71.2794 79.9992 79.9593 71.3193 79.9593 56.7595V23.2398C79.9993 8.67992 71.3194 0 56.7595 0Z" fill="#E04826"/>
<path d="M2.99997 31.8797C1.35999 31.8797 0 30.5597 0 28.8797V19.6398C0 8.79992 8.79992 0 19.6398 0H28.8797C30.5197 0 31.8797 1.35999 31.8797 2.99997C31.8797 4.63996 30.5597 5.99994 28.8797 5.99994H19.6398C12.1199 5.99994 5.99995 12.1199 5.99995 19.6398V28.8797C5.99995 30.5597 4.63996 31.8797 2.99997 31.8797Z" fill="#E04826"/>
<path d="M76.9965 31.8797C75.3565 31.8797 73.9965 30.5197 73.9965 28.8797V19.6398C73.9965 12.1199 67.8766 5.99994 60.3567 5.99994H51.1167C49.4767 5.99994 48.1168 4.63996 48.1168 2.99997C48.1168 1.35999 49.4367 0 51.1167 0H60.3567C71.1966 0 79.9965 8.79992 79.9965 19.6398V28.8797C79.9965 30.5597 78.6365 31.8797 76.9965 31.8797Z" fill="#E04826"/>
<path d="M60.3562 80H54.7963C53.1563 80 51.7963 78.64 51.7963 77.0001C51.7963 75.3601 53.1563 74.0001 54.7963 74.0001H60.3562C67.8762 74.0001 73.9961 67.8801 73.9961 60.3602V54.8003C73.9961 53.1603 75.3561 51.8003 76.9961 51.8003C78.6361 51.8003 79.9961 53.1603 79.9961 54.8003V60.3602C79.9961 71.2001 71.1961 80 60.3562 80Z" fill="#E04826"/>
<path d="M28.8797 79.9985H19.6398C8.79992 79.9985 0 71.1986 0 60.3587V51.1187C0 49.4788 1.35999 48.1188 2.99997 48.1188C4.63996 48.1188 5.99995 49.4788 5.99995 51.1187V60.3587C5.99995 67.8786 12.1199 73.9985 19.6398 73.9985H28.8797C30.5197 73.9985 31.8797 75.3585 31.8797 76.9985C31.8797 78.6385 30.5597 79.9985 28.8797 79.9985Z" fill="#E04826"/>
</svg>
