<svg width="80" height="80" viewBox="0 0 80 80" fill="none" xmlns="http://www.w3.org/2000/svg">
<path opacity="0.4" d="M56.7485 0H23.2516C8.6843 0 0 8.68434 0 23.2516V56.7484C0 71.3157 8.6843 80 23.2516 80H56.7485C71.3158 80 80.0001 71.3157 80.0001 56.7484V23.2516C80.0001 8.68434 71.3158 0 56.7485 0Z" fill="#ECCA55"/>
<path d="M40 16C33.9326 16 29 20.9378 29 27.0116C29 32.9694 33.6547 37.7914 39.7221 38C39.9074 37.9768 40.0926 37.9768 40.2316 38C40.2779 38 40.3011 38 40.3474 38C40.3705 38 40.3705 38 40.3937 38C46.3221 37.7914 50.9768 32.9694 51 27.0116C51 20.9378 46.0674 16 40 16Z" fill="#ECCA55"/>
<path d="M52.267 44.3196C45.5298 39.8935 34.5426 39.8935 27.7571 44.3196C24.6903 46.3423 23 49.079 23 52.0059C23 54.9329 24.6903 57.6458 27.733 59.6447C31.1137 61.8816 35.5568 63 40 63C44.4431 63 48.8863 61.8816 52.267 59.6447C55.3097 57.622 57 54.9091 57 51.9584C56.9759 49.0314 55.3097 46.3186 52.267 44.3196Z" fill="#ECCA55"/>
</svg>
