<svg width="80" height="80" viewBox="0 0 80 80" fill="none" xmlns="http://www.w3.org/2000/svg">
<path d="M24.7988 0.0375977V24.798H0V22.1876C0 8.32951 8.25349 0.0760242 22.1116 0.0760242H24.7988V0.0375977Z" fill="#FF9E2C"/>
<path d="M76.1624 22.15C76.1624 23.6088 74.9724 24.7604 73.552 24.7604H51.4788V0H54.0512C66.2586 0.0383881 76.1624 9.9426 76.1624 22.15Z" fill="#FF9E2C"/>
<path d="M24.7978 51.4023V73.5139C24.7978 74.9727 23.6076 76.1243 22.1872 76.1243H22.1489C9.9415 76.1243 0.037323 66.2202 0.037323 54.0127V51.4023H24.7978Z" fill="#FF9E2C"/>
<path opacity="0.4" d="M24.836 24.7611H0.037323V51.4027H24.836V24.7611Z" fill="#FF9E2C"/>
<path d="M51.4434 24.7611V48.7923C51.4434 50.251 50.2534 51.4027 48.833 51.4027H24.8022V24.7611H51.4434Z" fill="#FF9E2C"/>
<path opacity="0.4" d="M51.4434 0.0375977H24.8022V24.798H51.4434V0.0375977Z" fill="#FF9E2C"/>
<path opacity="0.4" d="M67.7112 71.1711L60.4174 78.5029C58.4212 80.4991 55.1199 80.4991 53.0469 78.5029L46.9816 72.3996C44.9854 70.365 44.9854 67.1016 46.9816 65.0287L54.3137 57.7737L67.7112 71.1711Z" fill="#FF9E2C"/>
<path d="M78.5009 60.4224L67.7138 71.1711L54.3163 57.7736L65.065 46.9482C67.0996 44.952 70.401 44.952 72.4355 46.9482L78.5009 53.0519C80.4971 55.0865 80.4971 58.4262 78.5009 60.4224Z" fill="#FF9E2C"/>
</svg>
