<svg width="80" height="80" viewBox="0 0 80 80" fill="none" xmlns="http://www.w3.org/2000/svg">
<path d="M26.04 0V26H0V23.24C0 8.68 8.68 0 23.24 0H26.04Z" fill="#24A3CD"/>
<path d="M79.9993 23.24V26H54.0393V0H56.7593C71.3193 0 79.9993 8.68 79.9993 23.24Z" fill="#24A3CD"/>
<path d="M79.9993 54.0001V56.7601C79.9993 71.3201 71.3193 80.0001 56.7593 80.0001H54.0393V54.0001H79.9993Z" fill="#24A3CD"/>
<path d="M26.04 54.0001V80.0001H23.24C8.68 80.0001 0 71.3201 0 56.7601V54.0001H26.04Z" fill="#24A3CD"/>
<path opacity="0.4" d="M26.04 25.9999H0V53.9999H26.04V25.9999Z" fill="#24A3CD"/>
<path opacity="0.4" d="M79.9993 25.9999H54.0393V53.9999H79.9993V25.9999Z" fill="#24A3CD"/>
<path d="M54.0392 25.9999H26.0391V53.9999H54.0392V25.9999Z" fill="#24A3CD"/>
<path opacity="0.4" d="M54.0392 0H26.0391V26H54.0392V0Z" fill="#24A3CD"/>
<path opacity="0.4" d="M54.0392 54.0001H26.0391V80.0001H54.0392V54.0001Z" fill="#24A3CD"/>
</svg>
