<svg width="50" height="50" viewBox="0 0 50 50" fill="none" xmlns="http://www.w3.org/2000/svg">
<path d="M50 25.0005C50 28.1984 46.6414 30.7058 45.4879 33.4866C44.2926 36.3693 44.85 40.5062 42.677 42.6781C40.5041 44.85 36.3682 44.2926 33.4856 45.4879C30.7047 46.6414 28.1973 50 24.9995 50C21.8016 50 19.2942 46.6414 16.5134 45.4879C13.6307 44.2926 9.49379 44.85 7.32188 42.677C5.14998 40.5041 5.70742 36.3682 4.51212 33.4856C3.35863 30.7047 0 28.1973 0 24.9995C0 21.8016 3.35863 19.2942 4.51212 16.5134C5.70742 13.6307 5.14998 9.49379 7.32296 7.32189C9.49594 5.14998 13.6318 5.70743 16.5144 4.51212C19.2953 3.35863 21.8027 0 25.0005 0C28.1984 0 30.7058 3.35863 33.4866 4.51212C36.3693 5.70743 40.5062 5.14998 42.6781 7.32296C44.85 9.49594 44.2926 13.6318 45.4879 16.5144C46.6414 19.2953 50 21.8027 50 25.0005Z" fill="#FFCB29"/>
<path d="M25.0004 41.0809C33.8813 41.0809 41.0807 33.8816 41.0807 25.0007C41.0807 16.1198 33.8813 8.92041 25.0004 8.92041C16.1195 8.92041 8.92014 16.1198 8.92014 25.0007C8.92014 33.8816 16.1195 41.0809 25.0004 41.0809Z" fill="#FAA629"/>
</svg>
