<svg width="800" height="170" viewBox="0 0 800 170" fill="none" xmlns="http://www.w3.org/2000/svg">
<path d="M185.613 41.504H172.313C167.013 41.504 162.713 45.804 162.713 51.104V149.404C162.713 154.704 167.013 159.004 172.313 159.004H185.613C190.913 159.004 195.213 154.704 195.213 149.404V51.104C195.113 45.704 190.913 41.504 185.613 41.504Z" fill="#D2D2D2"/>
<path d="M137.932 41.504C129.532 41.504 122.532 46.504 119.132 53.704L83.9323 128.604C83.1323 130.404 81.4323 133.204 80.0323 133.204C78.6323 133.204 76.9323 130.304 76.1323 128.604L40.6323 53.704C37.2323 46.504 30.2323 41.504 21.8323 41.504H1.33228L57.2323 149.704C62.7323 160.404 74.1323 160.104 79.9323 160.104C87.9323 160.104 97.3323 159.704 102.332 149.704L158.232 41.404H137.932V41.504Z" fill="#D2D2D2"/>
<path d="M755.913 23.5C755.913 18.2 751.613 13.9 746.313 13.9H733.013C727.713 13.9 723.413 18.2 723.413 23.5V120.6C723.413 135.4 728.713 144.1 738.113 150.3C747.213 156.3 757.813 158.9 777.413 158.9H788.113C793.413 158.9 797.613 154.6 797.613 149.3V138.9H789.613C783.813 138.9 771.613 138.7 764.413 133.8C755.013 127.6 755.813 116.5 755.813 108.5V23.5H755.913Z" fill="#D2D2D2"/>
<path d="M548.47 138.881C542.67 138.881 530.47 138.681 523.27 133.781C513.87 127.581 514.67 116.481 514.67 108.481V61.281H546.07C551.37 61.281 555.67 56.981 555.67 51.681V41.481H514.67V23.481C514.67 18.181 510.37 13.881 505.07 13.881H491.77C486.47 13.881 482.17 18.181 482.17 23.481V41.481H414.57V23.481C414.57 18.181 410.27 13.881 404.97 13.881H391.67C386.37 13.881 382.07 18.181 382.07 23.481V41.481H361.87V51.881C361.87 57.181 366.17 61.481 371.47 61.481H382.07V120.581C382.07 135.381 387.37 144.081 396.77 150.281C405.87 156.281 416.47 158.881 436.07 158.881H446.77C452.07 158.881 456.27 154.581 456.27 149.281V138.881H448.27C442.47 138.881 430.27 138.681 423.07 133.781C413.67 127.581 414.47 116.481 414.47 108.481V61.281H482.07V120.381C482.07 135.181 487.37 143.881 496.77 150.081C505.87 156.081 516.37 158.681 536.07 158.681H546.67C551.97 158.681 556.27 154.381 556.27 149.081V138.681H548.47V138.881Z" fill="#D2D2D2"/>
<path d="M321.431 81.939C321.431 85.039 320.631 88.839 314.231 88.839H268.131C256.431 88.839 246.931 94.139 246.931 100.839V88.839C247.231 81.039 246.931 74.639 253.631 68.639C262.431 60.639 275.731 60.839 284.331 60.839C293.431 60.839 303.931 61.239 312.031 66.139C316.731 69.139 321.431 74.639 321.431 81.939ZM350.231 149.339V138.939H278.531C266.631 138.939 253.031 137.639 248.931 125.039C247.831 121.439 247.031 113.939 247.031 108.839H332.331C338.131 108.839 343.731 107.939 348.131 104.439C354.231 99.639 355.031 92.739 355.031 86.739C355.031 71.939 351.431 57.339 334.231 48.639C320.731 41.739 302.931 41.139 285.831 41.139C272.031 41.139 247.031 41.139 231.031 52.239C214.931 63.339 213.531 79.539 213.531 101.439C213.531 116.939 214.331 133.139 224.031 144.139C236.231 157.839 253.931 159.039 268.831 159.039H340.731C345.931 158.839 350.231 154.539 350.231 149.339Z" fill="#D2D2D2"/>
<path d="M671.677 81.939C671.677 85.039 670.877 88.839 664.477 88.839H618.377C606.677 88.839 597.177 94.139 597.177 100.839V88.839C597.477 81.039 597.177 74.639 603.777 68.639C612.577 60.639 625.977 60.839 634.477 60.839C643.677 60.839 654.177 61.239 662.177 66.139C666.977 69.139 671.677 74.639 671.677 81.939ZM700.477 149.339V138.939H628.777C616.877 138.939 603.277 137.639 599.177 125.039C598.077 121.439 597.277 113.939 597.277 108.839H682.577C688.377 108.839 693.977 107.939 698.377 104.439C704.477 99.639 705.277 92.739 705.277 86.739C705.277 71.939 701.677 57.339 684.477 48.639C670.877 41.739 653.177 41.139 635.977 41.139C622.177 41.139 597.177 41.139 581.177 52.239C565.177 63.339 563.777 79.539 563.777 101.439C563.777 116.939 564.577 133.139 574.277 144.139C586.477 157.839 604.177 159.039 619.177 159.039H691.077C696.177 158.839 700.477 154.539 700.477 149.339Z" fill="#D2D2D2"/>
<path d="M185.613 8.59198H172.313C167.013 8.59198 162.713 12.892 162.713 18.092V20.692V41.392H162.813C163.713 35.992 169.913 30.292 178.913 30.292H185.513C190.813 30.292 195.113 25.992 195.113 20.692V18.092C195.113 12.892 190.913 8.59198 185.613 8.59198Z" fill="#D2D2D2"/>
</svg>
