<?xml version="1.0" encoding="UTF-8"?>
<svg id="Layer_2" data-name="Layer 2" xmlns="http://www.w3.org/2000/svg" viewBox="0 0 24 24">
  <defs>
    <style>
      .cls-1 {
        fill: #e04826;
        stroke-width: 0px;
      }
    </style>
  </defs>
  <g id="Layer_2-2" data-name="Layer 2">
    <g id="Layer_1-2" data-name="Layer 1-2">
      <g>
        <path class="cls-1" d="M24,24H0V0s.06,0,.09,0h17.84c.48,0,.95.05,1.41.16,1.36.32,2.48,1.02,3.35,2.11.88,1.1,1.31,2.36,1.31,3.77,0,5.96,0,11.91,0,17.87,0,.03,0,.06,0,.09h0ZM3,3v18h18V7.42c0-.32-.04-.63-.11-.94-.24-1.01-.76-1.84-1.57-2.49-.81-.65-1.74-.99-2.78-.99-4.49,0-8.97,0-13.46,0h-.08,0Z"/>
        <path class="cls-1" d="M6.01,6.01h5.99v.07c0,.52,0,1.05,0,1.57.01.7.19,1.37.53,1.99.57,1.03,1.41,1.74,2.52,2.13.36.12.72.21,1.1.22.47.02.95.01,1.42.01.14,0,.28,0,.42,0v5.99H6.01V6.01Z"/>
      </g>
    </g>
  </g>
</svg>